<svg xmlns="http://www.w3.org/2000/svg" width="680" height="840" viewBox="300 190 680 840" role="img" aria-labelledby="title desc">
<title id="title">EarnProof icon</title>
<desc id="desc">Standalone EarnProof icon traced from the generated artwork, with a navy shield-document frame, teal page fold, content lines, and a checkmark.</desc>
<path d="M 346 220 L 342 222 L 338 226 L 335 232 L 335 700 L 336 701 L 336 707 L 337 708 L 337 712 L 338 713 L 339 720 L 341 724 L 341 727 L 350 747 L 352 749 L 353 752 L 359 761 L 376 779 L 377 779 L 404 803 L 411 808 L 418 815 L 424 819 L 431 826 L 438 831 L 445 838 L 452 843 L 459 850 L 460 850 L 466 856 L 473 861 L 494 880 L 495 880 L 514 897 L 521 902 L 528 909 L 529 909 L 542 921 L 549 926 L 563 939 L 569 943 L 576 950 L 584 956 L 592 964 L 593 964 L 627 994 L 628 994 L 633 999 L 635 999 L 652 984 L 653 984 L 660 977 L 661 977 L 668 970 L 669 970 L 688 953 L 689 953 L 710 934 L 711 934 L 717 928 L 718 928 L 724 922 L 725 922 L 731 916 L 738 911 L 766 886 L 767 886 L 773 880 L 774 880 L 780 874 L 787 869 L 823 837 L 824 837 L 836 826 L 842 822 L 862 804 L 863 804 L 882 787 L 883 787 L 895 776 L 896 776 L 908 763 L 915 753 L 923 738 L 923 736 L 927 728 L 927 726 L 929 722 L 929 719 L 930 718 L 930 715 L 931 714 L 932 703 L 933 702 L 933 693 L 934 692 L 934 634 L 930 635 L 864 697 L 863 697 L 858 702 L 857 705 L 855 707 L 853 712 L 850 716 L 838 728 L 827 736 L 820 743 L 819 743 L 813 749 L 812 749 L 806 755 L 798 761 L 776 781 L 775 781 L 769 787 L 762 792 L 755 799 L 754 799 L 739 813 L 738 813 L 717 832 L 716 832 L 710 838 L 702 844 L 695 851 L 694 851 L 687 858 L 686 858 L 679 865 L 678 865 L 634 904 L 610 882 L 609 882 L 578 854 L 577 854 L 556 835 L 548 829 L 533 815 L 532 815 L 519 803 L 518 803 L 506 792 L 505 792 L 498 785 L 497 785 L 491 779 L 490 779 L 484 773 L 483 773 L 477 767 L 476 767 L 470 761 L 469 761 L 463 755 L 455 749 L 441 736 L 429 727 L 419 717 L 416 713 L 411 703 L 411 701 L 409 697 L 409 694 L 408 693 L 408 689 L 407 688 L 407 543 L 406 542 L 407 540 L 407 527 L 406 526 L 406 524 L 407 523 L 407 510 L 406 509 L 406 507 L 407 506 L 407 443 L 406 442 L 407 441 L 407 403 L 406 402 L 406 393 L 407 392 L 407 378 L 406 377 L 407 376 L 407 372 L 406 371 L 407 370 L 407 299 L 412 293 L 415 291 L 418 291 L 419 290 L 679 290 L 679 228 L 680 227 L 680 220 L 679 219 L 349 219 L 348 220 Z" fill="#0a284a"/>
<path d="M 934 430 L 861 430 L 861 644 L 863 644 L 868 639 L 869 639 L 934 577 Z" fill="#0a284a"/>
<path d="M 860 551 L 858 551 L 855 553 L 634 759 L 568 696 L 566 696 L 561 701 L 560 701 L 527 733 L 526 733 L 517 742 L 517 745 L 629 851 L 633 854 L 636 854 L 650 840 L 651 840 L 675 817 L 676 817 L 719 776 L 720 776 L 728 768 L 729 768 L 742 755 L 743 755 L 753 745 L 754 745 L 766 733 L 767 733 L 790 711 L 791 711 L 801 701 L 802 701 L 814 689 L 815 689 L 860 647 Z" fill="#02b093"/>
<path d="M 479 484 L 479 536 L 781 536 L 782 535 L 782 484 Z" fill="#02b093"/>
<path d="M 707 240 L 707 396 L 708 398 L 711 401 L 867 401 L 867 399 L 815 347 L 815 346 L 810 341 L 809 341 L 808 339 L 709 240 Z" fill="#02b093"/>
<path d="M 479 577 L 479 628 L 674 628 L 674 577 L 673 576 L 480 576 Z" fill="#02b093"/>
<path d="M 479 392 L 479 443 L 627 443 L 627 392 L 626 391 L 480 391 Z" fill="#02b093"/>
</svg>
